# xmcd CD database file
#
# Track frame offsets:
#	150
#	13842
#	28700
#	39918
#	55929
#	76599
#	94182
#	110466
#	131175
#	147208
#	164493
#	180719
#
# Disc length: 2590 seconds
#
# Revision: 0
# Processed by: cddbd v1.5.2PL0 Copyright (c) Steve Scherf et al.
# Submitted via: CDex 1.70beta2
#
DISCID=9a0a1c0c
DTITLE=Western Union - Country Diamonds Vol.1
DYEAR=2002
DGENRE=Country
TTITLE0=Rosegarden
TTITLE1=Roly Poly
TTITLE2=Its so easy
TTITLE3=Heartaches by the number
TTITLE4=Right or wrong
TTITLE5=Blanket on the ground
TTITLE6=Games people play
TTITLE7=San Antonio Rose
TTITLE8=L.A. International Airport
TTITLE9=Release me
TTITLE10=Take me back to Tulsa
TTITLE11=Walk on by
EXTD=YEAR: 2002
EXTT0=
EXTT1=
EXTT2=
EXTT3=
EXTT4=
EXTT5=
EXTT6=
EXTT7=
EXTT8=
EXTT9=
EXTT10=
EXTT11=
PLAYORDER=
